<svg width="24" height="24" viewBox="0 0 24 24" fill="none" xmlns="http://www.w3.org/2000/svg">
<path d="M19.67 3.27341C19.6639 3.25856 19.6537 3.24693 19.6414 3.24059C18.2117 2.42069 16.7031 1.83603 15.1531 1.50125C15.139 1.49798 15.1245 1.50034 15.1116 1.508C15.0986 1.51566 15.0879 1.52822 15.081 1.54391C14.8756 2.00998 14.6891 2.48871 14.5223 2.97828C12.8515 2.66126 11.152 2.66126 9.48129 2.97828C9.31336 2.48747 9.12388 2.00862 8.91373 1.54391C8.90652 1.52856 8.89578 1.51629 8.88292 1.50868C8.87005 1.50107 8.85564 1.49848 8.84158 1.50125C7.29147 1.83533 5.78271 2.42003 4.35328 3.24064C4.34104 3.24713 4.33072 3.2582 4.32373 3.27233C1.46514 8.60849 0.682067 13.8134 1.06622 18.9539C1.0673 18.9665 1.07039 18.9787 1.07532 18.9898C1.08025 19.0009 1.08691 19.0106 1.0949 19.0184C2.75943 20.559 4.62123 21.7349 6.60084 22.496C6.61478 22.5012 6.62967 22.501 6.6435 22.4953C6.65733 22.4897 6.66944 22.4788 6.6782 22.4643C7.10338 21.7412 7.48012 20.9754 7.80459 20.1748C7.80905 20.1639 7.8116 20.1518 7.81206 20.1395C7.81253 20.1272 7.8109 20.1149 7.80729 20.1035C7.80368 20.092 7.79817 20.0816 7.79111 20.073C7.78406 20.0644 7.77563 20.0578 7.76638 20.0535C7.17229 19.7694 6.59714 19.4269 6.04633 19.0292C6.03632 19.0218 6.02792 19.0115 6.02186 18.9991C6.0158 18.9868 6.01227 18.9727 6.01159 18.9582C6.0109 18.9437 6.01308 18.9293 6.01793 18.9161C6.02278 18.9029 6.03015 18.8914 6.03939 18.8826C6.15497 18.7744 6.27062 18.6618 6.38098 18.5481C6.39078 18.538 6.40265 18.5315 6.41524 18.5294C6.42783 18.5273 6.44064 18.5296 6.45223 18.5361C10.0608 20.5947 13.9676 20.5947 17.5335 18.5361C17.5451 18.5292 17.558 18.5266 17.5708 18.5285C17.5836 18.5304 17.5957 18.5368 17.6056 18.547C17.716 18.6607 17.8316 18.7744 17.9481 18.8826C17.9574 18.8913 17.9648 18.9027 17.9697 18.9159C17.9747 18.929 17.9769 18.9435 17.9763 18.9579C17.9757 18.9724 17.9723 18.9865 17.9663 18.9989C17.9603 19.0113 17.952 19.0217 17.942 19.0292C17.3924 19.4302 16.8168 19.7725 16.2211 20.0525C16.2119 20.0569 16.2035 20.0636 16.1965 20.0724C16.1895 20.0811 16.184 20.0916 16.1805 20.1032C16.1769 20.1147 16.1754 20.1271 16.1759 20.1394C16.1765 20.1518 16.1791 20.1638 16.1836 20.1748C16.5135 20.971 16.8897 21.7357 17.3092 22.463C17.3177 22.478 17.3297 22.4892 17.3436 22.4951C17.3575 22.5009 17.3725 22.5012 17.3865 22.4959C19.3697 21.7373 21.2347 20.5613 22.9013 19.0184C22.9095 19.011 22.9162 19.0015 22.9212 18.9906C22.9261 18.9796 22.9291 18.9675 22.93 18.955C23.3899 13.0121 22.1601 7.84977 19.67 3.27341ZM8.3435 15.8239C7.25705 15.8239 6.36186 14.5776 6.36186 13.0471C6.36186 11.5165 7.23969 10.2702 8.3435 10.2702C9.45594 10.2702 10.3425 11.5273 10.3251 13.047C10.3251 14.5776 9.44724 15.8239 8.3435 15.8239ZM15.6703 15.8239C14.5838 15.8239 13.6886 14.5776 13.6886 13.0471C13.6886 11.5165 14.5665 10.2702 15.6703 10.2702C16.7828 10.2702 17.6693 11.5273 17.6519 13.047C17.6519 14.5776 16.7828 15.8239 15.6703 15.8239Z" fill="white"/>
</svg>
